<mxfile host="app.diagrams.net" modified="2021-08-16T05:53:31.499Z" agent="5.0 (Windows NT 10.0; Win64; x64) AppleWebKit/537.36 (KHTML, like Gecko) Chrome/92.0.4515.131 Safari/537.36" etag="gs7BulLjm4t9c6-F-IW7" version="14.9.3" type="github">
  <diagram id="USvdxjiuD-IgqDXM83YR" name="Page-1">
    <mxGraphModel dx="1209" dy="652" grid="1" gridSize="10" guides="1" tooltips="1" connect="1" arrows="1" fold="1" page="1" pageScale="1" pageWidth="827" pageHeight="1169" math="0" shadow="0">
      <root>
        <mxCell id="0" />
        <mxCell id="1" parent="0" />
        <mxCell id="iriMk9ZSm3TEAcpo3P7N-1" value="Application" style="rounded=1;whiteSpace=wrap;html=1;fontSize=18;fontStyle=1;strokeColor=#82b366;fontColor=#FFFFFF;fillColor=#00994D;" vertex="1" parent="1">
          <mxGeometry x="160" y="160" width="120" height="40" as="geometry" />
        </mxCell>
        <mxCell id="iriMk9ZSm3TEAcpo3P7N-2" value="Presentation" style="rounded=1;whiteSpace=wrap;html=1;fontSize=18;fontStyle=1;strokeColor=#82b366;fontColor=#FFFFFF;fillColor=#00CC66;" vertex="1" parent="1">
          <mxGeometry x="160" y="210" width="120" height="40" as="geometry" />
        </mxCell>
        <mxCell id="iriMk9ZSm3TEAcpo3P7N-3" value="Session" style="rounded=1;whiteSpace=wrap;html=1;fontSize=18;fontStyle=1;fontColor=#FFFFFF;strokeColor=#FFFFFF;fillColor=#00CC66;" vertex="1" parent="1">
          <mxGeometry x="160" y="260" width="120" height="40" as="geometry" />
        </mxCell>
        <mxCell id="iriMk9ZSm3TEAcpo3P7N-4" value="Transport" style="rounded=1;whiteSpace=wrap;html=1;fontSize=18;fontStyle=1;fontColor=#FFFFFF;strokeColor=#66FFB3;fillColor=#33FF99;" vertex="1" parent="1">
          <mxGeometry x="160" y="310" width="120" height="40" as="geometry" />
        </mxCell>
        <mxCell id="iriMk9ZSm3TEAcpo3P7N-5" value="Network" style="rounded=1;whiteSpace=wrap;html=1;fontSize=18;fontStyle=1;strokeColor=#82b366;fontColor=#FFFFFF;fillColor=#CCCC00;" vertex="1" parent="1">
          <mxGeometry x="160" y="360" width="120" height="40" as="geometry" />
        </mxCell>
        <mxCell id="iriMk9ZSm3TEAcpo3P7N-6" value="Data Link" style="rounded=1;whiteSpace=wrap;html=1;fontSize=18;fontStyle=1;strokeColor=#82b366;fontColor=#FFFFFF;fillColor=#FFB366;" vertex="1" parent="1">
          <mxGeometry x="160" y="410" width="120" height="40" as="geometry" />
        </mxCell>
        <mxCell id="iriMk9ZSm3TEAcpo3P7N-7" value="Physical" style="rounded=1;whiteSpace=wrap;html=1;fontSize=18;fontStyle=1;strokeColor=#82b366;fontColor=#FFFFFF;fillColor=#FF9933;" vertex="1" parent="1">
          <mxGeometry x="160" y="460" width="120" height="40" as="geometry" />
        </mxCell>
        <mxCell id="iriMk9ZSm3TEAcpo3P7N-8" value="&lt;ul&gt;&lt;li&gt;&amp;nbsp;End user layer: &lt;b&gt;HTTP&lt;/b&gt;, FTP, DNS&lt;/li&gt;&lt;/ul&gt;" style="rounded=1;whiteSpace=wrap;html=1;fontSize=12;fontColor=#333333;strokeColor=#666666;strokeWidth=0;verticalAlign=middle;align=left;fillColor=#B3B3B3;" vertex="1" parent="1">
          <mxGeometry x="280" y="165" width="240" height="30" as="geometry" />
        </mxCell>
        <mxCell id="iriMk9ZSm3TEAcpo3P7N-9" value="&lt;ul&gt;&lt;li&gt;&amp;nbsp;End to end connection: &lt;b&gt;TCP, &lt;/b&gt;UDP&lt;/li&gt;&lt;/ul&gt;" style="rounded=1;whiteSpace=wrap;html=1;fontSize=12;fontColor=#333333;strokeColor=#666666;strokeWidth=0;verticalAlign=middle;align=left;fillColor=#B3B3B3;" vertex="1" parent="1">
          <mxGeometry x="280" y="315" width="240" height="30" as="geometry" />
        </mxCell>
        <mxCell id="iriMk9ZSm3TEAcpo3P7N-10" value="&lt;ul&gt;&lt;li&gt;&amp;nbsp;Packets: &lt;b&gt;IP&lt;/b&gt;&lt;/li&gt;&lt;/ul&gt;" style="rounded=1;whiteSpace=wrap;html=1;fontSize=12;fontColor=#333333;strokeColor=#666666;strokeWidth=0;verticalAlign=middle;align=left;fillColor=#B3B3B3;" vertex="1" parent="1">
          <mxGeometry x="280" y="365" width="240" height="30" as="geometry" />
        </mxCell>
        <mxCell id="iriMk9ZSm3TEAcpo3P7N-11" value="&lt;ul&gt;&lt;li&gt;Syntax layer&lt;/li&gt;&lt;/ul&gt;" style="rounded=1;whiteSpace=wrap;html=1;fontSize=12;fontColor=#333333;strokeColor=#666666;strokeWidth=0;verticalAlign=middle;align=left;fillColor=#B3B3B3;" vertex="1" parent="1">
          <mxGeometry x="280" y="215" width="240" height="30" as="geometry" />
        </mxCell>
        <mxCell id="iriMk9ZSm3TEAcpo3P7N-12" value="&lt;ul&gt;&lt;li&gt;Sync &amp;amp; send to port&lt;/li&gt;&lt;/ul&gt;" style="rounded=1;whiteSpace=wrap;html=1;fontSize=12;fontColor=#333333;strokeColor=#666666;strokeWidth=0;verticalAlign=middle;align=left;fillColor=#B3B3B3;" vertex="1" parent="1">
          <mxGeometry x="280" y="265" width="240" height="30" as="geometry" />
        </mxCell>
        <mxCell id="iriMk9ZSm3TEAcpo3P7N-13" value="&lt;ul&gt;&lt;li&gt;&amp;nbsp;Frames: &lt;b&gt;Ethernet&lt;/b&gt;&lt;/li&gt;&lt;/ul&gt;" style="rounded=1;whiteSpace=wrap;html=1;fontSize=12;fontColor=#333333;strokeColor=#666666;strokeWidth=0;verticalAlign=middle;align=left;fillColor=#B3B3B3;" vertex="1" parent="1">
          <mxGeometry x="280" y="415" width="240" height="30" as="geometry" />
        </mxCell>
        <mxCell id="iriMk9ZSm3TEAcpo3P7N-14" value="&lt;ul&gt;&lt;li&gt;Physical structure&lt;/li&gt;&lt;/ul&gt;" style="rounded=1;whiteSpace=wrap;html=1;fontSize=12;fontColor=#333333;strokeColor=#666666;strokeWidth=0;verticalAlign=middle;align=left;fillColor=#B3B3B3;" vertex="1" parent="1">
          <mxGeometry x="280" y="465" width="240" height="30" as="geometry" />
        </mxCell>
      </root>
    </mxGraphModel>
  </diagram>
</mxfile>
